<svg width="124" height="72" viewBox="0 0 124 72" fill="none" xmlns="http://www.w3.org/2000/svg">
<g filter="url(#filter0_dd_1_35)">
<path d="M55.2812 34.4062C55.1146 34.4062 55.0104 34.3854 54.9688 34.3438C53.8854 34.1562 52.8542 34.0312 51.875 33.9688C50.9167 33.8854 49.9688 33.8229 49.0312 33.7812C49.8021 34.6771 50.4479 35.7708 50.9688 37.0625C51.5104 38.3333 51.7812 39.8438 51.7812 41.5938C51.7812 43.2604 51.5208 44.7708 51 46.125C50.5 47.4583 49.8125 48.6562 48.9375 49.7188C48.0625 50.7604 47.0312 51.6667 45.8438 52.4375C44.6771 53.1875 43.4271 53.8125 42.0938 54.3125C40.7812 54.8125 39.4167 55.1771 38 55.4062C36.5833 55.6562 35.1979 55.7812 33.8438 55.7812C30.3021 55.6771 27.1354 55.0833 24.3438 54C21.5521 52.8958 19.1771 51.3542 17.2188 49.375C15.2604 47.3958 13.7604 45 12.7188 42.1875C11.6979 39.375 11.1875 36.1875 11.1875 32.625C11.1875 29.4583 11.5208 26.6458 12.1875 24.1875C12.8542 21.7083 13.7604 19.5417 14.9062 17.6875C16.0729 15.8125 17.4375 14.2396 19 12.9688C20.5625 11.6771 22.2188 10.6354 23.9688 9.84375C25.7396 9.03125 27.5729 8.44792 29.4688 8.09375C31.3646 7.71875 33.2292 7.53125 35.0625 7.53125C36.8958 7.53125 38.5417 7.72917 40 8.125C41.4583 8.5 42.7604 8.97917 43.9062 9.5625C45.0521 10.1458 46.0312 10.8021 46.8438 11.5312C47.6771 12.2396 48.3646 12.9167 48.9062 13.5625L50.625 8.625C50.75 8.29167 50.9583 8.03125 51.25 7.84375C51.5417 7.63542 51.8438 7.53125 52.1562 7.53125C52.6771 7.53125 53.0833 7.71875 53.375 8.09375C53.6667 8.44792 53.8125 8.8125 53.8125 9.1875C53.8125 9.25 53.8021 9.33333 53.7812 9.4375C53.7604 9.52083 53.7292 9.61458 53.6875 9.71875L48.7188 24.25C48.6146 24.5625 48.4167 24.8229 48.125 25.0312C47.8333 25.2188 47.5104 25.3125 47.1562 25.3125C46.6771 25.3125 46.2812 25.1458 45.9688 24.8125C45.6562 24.4583 45.5 24.0729 45.5 23.6562C45.5 23.5938 45.5104 23.5208 45.5312 23.4375C45.5521 23.3542 45.5833 23.2604 45.625 23.1562L47.625 17.3125C47.1042 16.5 46.4688 15.7188 45.7188 14.9687C44.9896 14.1979 44.1771 13.5208 43.2812 12.9375C42.4062 12.3542 41.4792 11.8854 40.5 11.5312C39.5208 11.1771 38.5417 11 37.5625 11C35.0625 11 32.8542 11.5417 30.9375 12.625C29.0208 13.6875 27.4062 15.1562 26.0938 17.0312C24.8021 18.8854 23.8229 21.0521 23.1562 23.5312C22.4896 26.0104 22.1562 28.6562 22.1562 31.4688C22.1562 32.7188 22.2292 34.1042 22.375 35.625C22.5417 37.1458 22.8021 38.6875 23.1562 40.25C23.5312 41.8125 24.0104 43.3229 24.5938 44.7812C25.1979 46.2396 25.9375 47.5417 26.8125 48.6875C27.6875 49.8333 28.7083 50.75 29.875 51.4375C31.0417 52.125 32.3854 52.4688 33.9062 52.4688C36.4479 52.4688 38.6354 52.1562 40.4688 51.5312C42.3021 50.9062 43.8021 50.0833 44.9688 49.0625C46.1562 48.0417 47.0312 46.875 47.5938 45.5625C48.1562 44.25 48.4375 42.9062 48.4375 41.5312C48.4375 40.3229 48.2708 39.2812 47.9375 38.4062C47.6042 37.5104 47.2083 36.7708 46.75 36.1875C46.2917 35.5833 45.8229 35.1146 45.3438 34.7812C44.8646 34.4479 44.4896 34.2188 44.2188 34.0938C43.1146 34.2396 42.125 34.4271 41.25 34.6562C40.3958 34.8854 39.6667 35.1042 39.0625 35.3125C38.4792 35.5208 38.0208 35.7083 37.6875 35.875C37.375 36.0208 37.2083 36.0938 37.1875 36.0938C36.9583 36.2604 36.6979 36.3438 36.4062 36.3438C35.9271 36.3438 35.5312 36.1771 35.2188 35.8438C34.9062 35.4896 34.75 35.1042 34.75 34.6875C34.75 34.0833 35.0312 33.6042 35.5938 33.25C35.6562 33.2292 35.9896 33.0729 36.5938 32.7812C37.1979 32.4896 38.0417 32.1771 39.125 31.8438C40.2292 31.4896 41.5625 31.1771 43.125 30.9062C44.7083 30.6354 46.5 30.5 48.5 30.5C50.6458 30.5 53 30.7188 55.5625 31.1562C55.9375 31.2188 56.25 31.4062 56.5 31.7188C56.7708 32.0104 56.9062 32.3542 56.9062 32.75C56.9062 33.2917 56.7188 33.7083 56.3438 34C55.9688 34.2708 55.6146 34.4062 55.2812 34.4062ZM112.156 10.5312C112.156 10.9271 112.031 11.2708 111.781 11.5625C111.552 11.8542 111.25 12.0521 110.875 12.1562C109.812 12.4062 108.812 12.6042 107.875 12.75C106.938 12.875 106.01 12.9687 105.094 13.0312C104.198 17.0312 103.083 20.8958 101.75 24.625C100.417 28.3542 98.9167 31.9792 97.25 35.5C95.6042 39.0208 93.8021 42.4479 91.8438 45.7812C89.9062 49.1146 87.8854 52.3854 85.7812 55.5938C85.6146 55.8229 85.4062 56 85.1562 56.125C84.9271 56.25 84.6875 56.3333 84.4375 56.375C83.875 56.375 83.4271 56.1562 83.0938 55.7188C78.6771 50.0938 74.8958 43.75 71.75 36.6875C68.625 29.6042 66.0521 21.6771 64.0312 12.9062C62.9896 12.8021 61.9479 12.6979 60.9062 12.5937C59.8646 12.4896 58.8333 12.3437 57.8125 12.1562C57.3958 12.0937 57.0625 11.9167 56.8125 11.625C56.5417 11.3125 56.4062 10.9479 56.4062 10.5312C56.4062 10.0312 56.5938 9.63542 56.9688 9.34375C57.3438 9.03125 57.7083 8.875 58.0625 8.875C58.1042 8.875 58.1354 8.88542 58.1562 8.90625C58.1979 8.92708 58.25 8.9375 58.3125 8.9375C60.2083 9.22917 62.0729 9.45833 63.9062 9.625C65.7604 9.77083 67.5938 9.84375 69.4062 9.84375C71.2396 9.84375 73.0312 9.77083 74.7812 9.625C76.5312 9.45833 78.2812 9.22917 80.0312 8.9375C80.0938 8.9375 80.1458 8.92708 80.1875 8.90625C80.2292 8.88542 80.2812 8.875 80.3438 8.875C80.8229 8.875 81.2083 9.05208 81.5 9.40625C81.7917 9.73958 81.9375 10.1146 81.9375 10.5312C81.9375 10.9271 81.8125 11.2812 81.5625 11.5937C81.3125 11.9062 80.9896 12.0937 80.5938 12.1562C79.7188 12.3229 78.8438 12.4583 77.9688 12.5625C77.1146 12.6458 76.2396 12.7396 75.3438 12.8437C76.0521 15.6771 76.8333 18.5 77.6875 21.3125C78.5417 24.125 79.5 26.8854 80.5625 29.5937C81.625 32.3021 82.8125 34.9583 84.125 37.5625C85.4375 40.1458 86.9062 42.6354 88.5312 45.0312C90.1979 42.2396 91.7083 39.4896 93.0625 36.7812C94.4375 34.0729 95.6667 31.3958 96.75 28.75C97.8333 26.1042 98.7812 23.4792 99.5938 20.875C100.427 18.25 101.135 15.6354 101.719 13.0312C100.74 12.9687 99.75 12.875 98.75 12.75C97.75 12.6042 96.6667 12.4062 95.5 12.1562C95.125 12.0937 94.8021 11.9062 94.5312 11.5937C94.2812 11.2812 94.1562 10.9271 94.1562 10.5312C94.1562 10.0937 94.3229 9.70833 94.6562 9.375C95.0104 9.04167 95.3958 8.875 95.8125 8.875C95.8958 8.875 95.9583 8.88542 96 8.90625C96.0625 8.92708 96.1146 8.9375 96.1562 8.9375C97.5312 9.22917 98.7917 9.45833 99.9375 9.625C101.083 9.77083 102.208 9.84375 103.312 9.84375C104.417 9.84375 105.51 9.77083 106.594 9.625C107.677 9.45833 108.844 9.22917 110.094 8.9375C110.156 8.9375 110.219 8.92708 110.281 8.90625C110.344 8.88542 110.406 8.875 110.469 8.875C110.927 8.875 111.323 9.05208 111.656 9.40625C111.99 9.73958 112.156 10.1146 112.156 10.5312Z" fill="url(#paint0_linear_1_35)"/>
</g>
<defs>
<filter id="filter0_dd_1_35" x="0.1875" y="0.53125" width="122.969" height="70.8438" filterUnits="userSpaceOnUse" color-interpolation-filters="sRGB">
<feFlood flood-opacity="0" result="BackgroundImageFix"/>
<feColorMatrix in="SourceAlpha" type="matrix" values="0 0 0 0 0 0 0 0 0 0 0 0 0 0 0 0 0 0 127 0" result="hardAlpha"/>
<feOffset dy="1"/>
<feGaussianBlur stdDeviation="1.5"/>
<feColorMatrix type="matrix" values="0 0 0 0 0 0 0 0 0 0 0 0 0 0 0 0 0 0 0.3 0"/>
<feBlend mode="normal" in2="BackgroundImageFix" result="effect1_dropShadow_1_35"/>
<feColorMatrix in="SourceAlpha" type="matrix" values="0 0 0 0 0 0 0 0 0 0 0 0 0 0 0 0 0 0 127 0" result="hardAlpha"/>
<feMorphology radius="3" operator="dilate" in="SourceAlpha" result="effect2_dropShadow_1_35"/>
<feOffset dy="4"/>
<feGaussianBlur stdDeviation="4"/>
<feColorMatrix type="matrix" values="0 0 0 0 0 0 0 0 0 0 0 0 0 0 0 0 0 0 0.15 0"/>
<feBlend mode="normal" in2="effect1_dropShadow_1_35" result="effect2_dropShadow_1_35"/>
<feBlend mode="normal" in="SourceGraphic" in2="effect2_dropShadow_1_35" result="shape"/>
</filter>
<linearGradient id="paint0_linear_1_35" x1="108" y1="-1" x2="108" y2="65" gradientUnits="userSpaceOnUse">
<stop offset="0.331731" stop-color="#8E88C3"/>
<stop offset="0.581731" stop-color="#A7A0E5"/>
<stop offset="1" stop-color="#5D597F"/>
</linearGradient>
</defs>
</svg>
